<?xml version="1.0" encoding="utf-8"?>
<!-- Generator: Adobe Illustrator 22.0.1, SVG Export Plug-In . SVG Version: 6.00 Build 0)  -->
<svg version="1.1" id="Capa_1" xmlns="http://www.w3.org/2000/svg" xmlns:xlink="http://www.w3.org/1999/xlink" x="0px" y="0px"
	 viewBox="0 0 500 500" style="enable-background:new 0 0 500 500;" xml:space="preserve">
<style type="text/css">
	.st0{opacity:0.28;fill:#5CD4E0;stroke:#FFFFFF;stroke-width:7;stroke-miterlimit:10;}
	.st1{stroke:#000000;stroke-miterlimit:10;}
	.st2{stroke:#000000;stroke-width:0.4;stroke-miterlimit:10;}
	.st3{stroke:#FFFFFF;stroke-width:0.4;stroke-miterlimit:10;}
	.st4{fill:#FFFFFF;stroke:#FFFFFF;stroke-width:0.4;stroke-miterlimit:10;}
	.st5{stroke:#000000;stroke-width:0.75;stroke-miterlimit:10;}
	.st6{stroke:#FFFFFF;}
	.st7{font-family:'BerlinSansFBDemi-Bold';}
	.st8{font-size:72px;}
</style>
<ellipse class="st0" cx="255.5" cy="262" rx="206.5" ry="228"/>
<g>
	<g>
		<g>
			<path class="st1" d="M185.4,251.7c-0.2,0-0.4,0.3-0.6,1c-0.1,0.7-0.3,1.8-0.1,3.1c0.2,2.7,1.6,6.4,3.1,10.6
				c0.7,2.1,1.5,4.4,1.5,6.6c0,0.3,0,0.5,0,0.8l0,0.4l-0.1,0.4c-0.1,0.3-0.1,0.5-0.2,0.8c-0.1,0.3-0.2,0.5-0.3,0.8
				c-0.3,1-1.1,2-2.1,3.1c-0.5,0.6-1,1.2-1.5,1.9c-0.5,0.7-1,1.5-1.4,2.3c-0.8,1.6-1.5,3.3-1.9,5.1c-0.8,3.5-0.9,7.2-0.9,10.7
				c0.1,7,0.3,13.6,0.5,19.7c0.1,3,0.2,5.9,0.4,8.6c0.1,2.7,0.3,5.1,0.2,7.3c0,4.4-0.7,7.8-1.7,10.1c-0.9,2.2-1.8,3.4-1.5,3.6
				c0.1,0.1,0.5,0,1.1-0.4c0.6-0.4,1.4-1.1,2.2-2.3c0.8-1.1,1.6-2.6,2.2-4.5c0.6-1.8,1-4,1.3-6.3c0.3-2.4,0.3-4.9,0.4-7.6
				c0-2.7,0.1-5.6,0.1-8.6c0-6,0-12.7-0.1-19.7c0-3.4,0-6.7,0.6-9.6c0.3-1.4,0.7-2.8,1.3-4c0.3-0.6,0.6-1.2,1-1.7
				c0.4-0.6,0.8-1.1,1.3-1.8c0.9-1.2,2-2.6,2.5-4.4c0.1-0.4,0.3-0.8,0.4-1.2c0.1-0.4,0.1-0.9,0.2-1.3l0.1-0.6l0-0.6
				c0-0.4,0-0.8,0-1.2c-0.3-3.2-1.4-5.6-2.4-7.8c-1-2.1-2-3.9-2.7-5.5c-0.8-1.6-1.3-3-1.7-4.1c-0.4-1.2-0.6-2.1-0.8-2.7
				C185.7,252,185.6,251.7,185.4,251.7z"/>
		</g>
	</g>
</g>
<g>
	<g>
		<g>
			<path class="st1" d="M182.8,236.2c0.2,0.2,0.7,0,1.3-0.7c0.6-0.6,1.4-1.7,1.9-3.4c0.5-1.6,0.8-3.8,0.2-6.2
				c-0.3-1.2-0.8-2.4-1.6-3.6c-0.4-0.6-0.7-1-1-1.4c-0.1-0.2-0.2-0.4-0.2-0.5c0-0.1,0-0.2,0-0.3c0-0.1,0-0.1,0-0.2
				c0-0.1,0-0.1,0.1-0.2c0.1-0.2,0.3-0.5,0.6-0.8c0.6-0.7,1.5-1.4,2.5-2.7c1.8-2.4,2.8-5.3,3.1-8.2c0.3-2.4,0.1-4.8-0.3-6.9
				c-0.3-2.1-0.8-4.1-1.2-5.9c-0.4-1.8-0.7-3.5-0.9-5c-0.2-1.5-0.2-2.9,0.1-4c0.2-1.1,0.6-2.1,1.2-2.7c0.5-0.7,1.3-1.2,2-1.8
				c0.7-0.5,1.1-1.1,1.4-1.5c0.2-0.4,0.2-0.7,0.1-0.8c-0.3-0.2-1,0.2-2.4,0.6c-0.7,0.3-1.7,0.5-2.9,1.4c-1.1,0.8-2.1,2.2-2.7,3.8
				c-0.6,1.6-0.8,3.4-0.8,5.2c0,1.9,0.2,3.7,0.5,5.6c0.5,3.8,1.4,7.7,1,11.5c-0.2,2.3-0.9,4.3-2,5.8c-0.5,0.7-1.4,1.5-2.2,2.6
				c-0.4,0.5-0.9,1.2-1.2,2c-0.2,0.4-0.3,0.9-0.4,1.4c-0.1,0.5-0.1,1,0,1.4c0.1,0.5,0.3,1.1,0.5,1.5c0.2,0.4,0.5,0.8,0.7,1.1
				c0.5,0.6,0.9,1.1,1.2,1.4c0.6,0.7,1,1.5,1.4,2.3c0.7,1.6,0.8,3.2,0.7,4.5C183.3,234.3,182.4,235.9,182.8,236.2z"/>
		</g>
	</g>
</g>
<g>
	<g>
		<g>
			<path class="st1" d="M186.6,170.6c0.1-0.1-0.2-0.7-0.9-1.9c-0.7-1.1-1.7-2.8-2.7-5c-2.1-4.4-4.2-11.4-4.6-20.2
				c-0.3-4.4-0.1-9.3,0.1-14.6c0.2-5.3,0.5-11,0.1-17.2c-0.2-3-0.5-6.3-1.1-9.4c-0.6-3.1-1.2-6.1-1.3-9.1c-0.2-5.9,1.9-12.2,4-18.8
				c1-3.2,2.2-6.2,3.9-8.6c0.8-1.2,1.8-2.3,2.9-3.2c1.1-0.9,2.3-1.6,3.5-2c1.2-0.4,2.5-0.6,3.7-0.5c1.2,0.1,2.3,0.5,3.4,1.2
				c2.2,1.3,4,3.6,5.8,5.9c3.6,4.8,7.1,9.3,10.3,13.5c3.2,4.2,6.3,8.1,8.9,11.7c2.6,3.6,4.8,7,6.4,10.1c1.7,3.1,2.8,5.9,3.5,8.2
				c0.3,1.2,0.7,2.2,0.9,3.2c0.2,0.9,0.4,1.7,0.5,2.4c0.3,1.3,0.4,2,0.6,2c0.2,0,0.4-0.7,0.4-2.1c0-0.7,0.1-1.5,0-2.5
				c0-1-0.2-2.1-0.4-3.4c-0.5-2.5-1.4-5.6-2.9-9c-1.5-3.4-3.6-7-6-10.9c-2.5-3.8-5.4-7.9-8.5-12.2c-3.1-4.3-6.4-8.9-9.9-13.8
				c-1.8-2.4-3.8-5.2-7-7.2c-1.6-1-3.5-1.7-5.5-1.9c-2-0.2-4,0.1-5.8,0.8c-3.6,1.3-6.7,3.9-8.8,7c-2.1,3.1-3.4,6.6-4.5,9.9
				c-1,3.4-2.1,6.6-2.9,10c-0.8,3.4-1.4,6.9-1.2,10.5c0.1,3.5,0.9,6.8,1.5,9.8c0.6,3,1,5.9,1.2,8.8c0.4,5.8,0.3,11.4,0.3,16.8
				c0,5.3,0.1,10.4,0.6,15c0.5,4.6,1.4,8.7,2.5,12.2c1.1,3.5,2.5,6.4,3.9,8.6c1.4,2.2,2.7,3.8,3.7,4.7
				C185.9,170.4,186.5,170.7,186.6,170.6z"/>
		</g>
	</g>
</g>
<g>
	<g>
		<g>
			<path class="st1" d="M226.4,126c0.1-0.1,0.1-0.5,0-1.4c-0.1-0.4-0.2-1-0.4-1.6c-0.2-0.6-0.4-1.3-0.7-2.1
				c-1.1-3.1-3.3-7.4-6.6-12.3c-3.3-4.9-7.9-10.4-12.7-16.5c-2.4-3.1-4.9-6.3-7.2-9.8c-0.6-0.9-1.2-1.8-1.7-2.7
				c-0.5-0.9-1.1-1.8-1.6-2.8c-0.5-1-1-2-1.5-2.9c-0.2-0.3-0.3-0.5-0.5-1c-0.3-0.4-0.6-0.9-0.9-1.3c-0.7-0.8-1.6-1.3-2.5-1.6
				c-1.8-0.5-3.9,0.2-5.1,1.8c-0.3,0.4-0.6,0.8-0.9,1.2c-0.2,0.3-0.3,0.7-0.5,1c-0.3,0.7-0.5,1.3-0.7,2c-0.2,0.7-0.2,1.2-0.4,1.8
				l-0.3,1.7c-0.2,1.1-0.4,2.3-0.6,3.4c-0.9,5.4-1.7,10.7-2.4,15.8c-0.3,2.6-0.7,5.1-0.9,7.5c-0.1,1.2-0.3,2.5-0.4,3.7
				c-0.1,1.3-0.2,2.6-0.1,4c0.1,1.4,0.4,2.9,1,4.1c0.5,1.2,1.1,2.3,1.6,3.3c0.3,0.5,0.5,1,0.7,1.4c0.2,0.5,0.4,0.9,0.6,1.4
				c0.4,0.9,0.7,1.9,1,2.8c1.1,3.8,1.4,7.6,1.8,11.1c0.3,3.5,0.6,6.8,1.2,9.7c0.5,2.9,1.4,5.3,2.2,7.2c0.5,0.9,0.9,1.7,1.4,2.4
				c0.5,0.6,0.9,1.2,1.3,1.6c0.8,0.8,1.3,1.1,1.4,1c0.3-0.2-1.1-2-2.3-5.6c-0.5-1.9-1-4.1-1.3-6.9c-0.2-2.8-0.3-5.9-0.4-9.5
				c-0.1-3.6-0.2-7.6-1.3-12c-0.3-1.1-0.6-2.2-1-3.3c-0.2-0.5-0.4-1.1-0.7-1.7c-0.2-0.5-0.5-1.1-0.8-1.6c-0.5-1-1-2-1.3-2.9
				c-0.3-0.9-0.5-1.7-0.6-2.7c0-1,0-2,0.2-3.2c0.2-1.2,0.3-2.4,0.5-3.6c0.3-2.4,0.7-4.9,1.1-7.5c0.7-5.1,1.6-10.3,2.5-15.6
				c0.2-1.1,0.4-2.3,0.6-3.4l0.3-1.7c0.1-0.5,0.2-1.2,0.3-1.5c0.1-0.4,0.2-0.8,0.4-1.2c0.1-0.2,0.2-0.4,0.2-0.5c0,0,0-0.1,0.1-0.1
				c0.1-0.2,0.3-0.3,0.5-0.2c0.1,0,0.2,0.1,0.3,0.2c0,0,0.1,0.1,0.1,0.1c0,0.1,0.2,0.4,0.3,0.6c0.5,1,1.1,2.1,1.6,3.1
				c0.5,1,1.2,2,1.8,3c0.6,1,1.2,1.9,1.9,2.8c2.5,3.7,5.2,6.9,7.8,9.9c5.2,6,9.9,11.1,13.5,15.7C223.4,119.6,225.8,126.2,226.4,126z
				"/>
		</g>
	</g>
</g>
<g>
	<g>
		<g>
			<path class="st1" d="M213.8,147.9c0.3,0.1,0.9-0.5,1.6-1.6c0.7-1.1,1.6-2.7,2.7-4.5c0.6-0.9,1.3-1.8,2.1-2.7
				c0.8-0.9,1.7-1.6,2.9-2.4c1.2-0.9,2.6-1.8,4-3.3c0.3-0.4,0.7-0.8,1-1.2c0.3-0.5,0.6-0.9,0.8-1.3c0.4-0.8,0.7-1.4,1-1.7
				c0.1-0.1,0.2-0.2,0.3-0.3c0.1-0.1,0.4-0.2,0.6-0.3c0.5-0.2,1.3-0.3,2.1-0.4c1.6-0.2,3.1-0.5,4.6-0.7c2.9-0.4,5.6-0.7,7.8-0.9
				c4.5-0.5,7.3-0.8,7.4-1.5c0.1-0.7-2.7-1.6-7.4-2c-2.3-0.2-5.1-0.3-8.2-0.2c-1.5,0.1-3.2,0.2-4.8,0.4c-0.8,0.1-1.7,0.2-2.8,0.5
				c-0.5,0.1-1.1,0.4-1.7,0.7c-0.6,0.3-1.2,0.8-1.7,1.4c-0.9,1.1-1.3,2.1-1.6,2.8c-0.2,0.4-0.3,0.6-0.5,0.9
				c-0.1,0.2-0.3,0.5-0.5,0.7c-0.8,1-2,1.9-3.2,2.9c-1.2,1-2.4,2.2-3.3,3.5c-0.9,1.2-1.5,2.5-2,3.6c-0.9,2.3-1.3,4.2-1.4,5.5
				C213.4,147,213.5,147.7,213.8,147.9z"/>
		</g>
	</g>
</g>
<g>
	<g>
		<g>
			<path class="st1" d="M260,127.7c0.1,1.4,9.7,1.5,21.3,1.7c1.4,0,2.5,0.1,3.1,0.4c0.5,0.2,1.2,1,1.9,2c1.5,2.1,2.9,3.9,4.1,5.4
				c2.4,3,4.3,4.7,4.8,4.3c0.6-0.4-0.2-2.7-1.8-6.2c-0.8-1.8-1.9-3.8-3.2-6c-0.3-0.6-0.7-1.2-1.3-1.9c-0.5-0.7-1.3-1.4-2.2-1.9
				c-1.9-1-3.8-1.1-5.3-1.1C269.4,124.2,259.8,126.3,260,127.7z"/>
		</g>
	</g>
</g>
<g>
	<g>
		<g>
			<path class="st1" d="M276.7,117.6c0.4,0.1,0.9-2.7,3.5-7c1.3-2.1,3.1-4.6,5.3-7.5c2.2-2.9,4.6-6.2,7.4-9.8
				c5.5-7.2,12.3-15.7,20.1-24.8c2-2.3,3.9-4.5,6.1-6.3c1.1-0.9,2.3-1.6,3.5-2.1c1.2-0.5,2.6-0.8,3.9-0.8c1.3,0,2.5,0.3,3.5,0.9
				c1,0.6,2,1.5,2.7,2.7c1.6,2.4,2.4,5.6,3.3,8.9c3.4,13.1,3.5,26.4,1.4,37.9c-0.2,1.5-0.6,2.9-0.9,4.3c-0.4,1.4-0.7,2.8-1,4.1
				c-0.8,2.7-1.6,5.4-2.2,8.1c-0.7,2.7-1.1,5.5-1.2,8.1c-0.1,2.6,0,5.1,0.2,7.4c0.3,4.6,0.7,8.6,0.4,12.1c-0.3,3.4-1.2,6.4-2.3,8.5
				c-1,2.2-2.3,3.7-3.2,4.6c-0.9,0.9-1.5,1.4-1.4,1.5c0.1,0.1,0.8,0,2-0.8c1.2-0.7,2.8-2.1,4.3-4.4c1.5-2.3,2.7-5.4,3.3-9.1
				c0.6-3.8,0.5-8,0.4-12.6c0-2.3-0.1-4.6,0.1-7c0.2-2.4,0.6-4.7,1.3-7.3c0.7-2.5,1.6-5.1,2.4-7.9c0.4-1.4,0.8-2.8,1.2-4.3
				c0.3-1.5,0.7-3,1-4.5c2.4-12.1,2.5-26.1-1.1-40c-0.9-3.4-1.8-7-4-10.4c-1.1-1.7-2.6-3.2-4.5-4.3c-1.9-1-4-1.5-6-1.5
				c-4,0-7.6,1.8-10.3,4c-2.7,2.2-4.8,4.7-6.7,7.1c-7.7,9.4-14.2,18.2-19.5,25.7c-2.6,3.8-4.9,7.2-6.9,10.3c-2,3.1-3.6,5.8-4.7,8.2
				c-1.1,2.4-1.7,4.4-1.9,5.8C276.4,116.8,276.5,117.6,276.7,117.6z"/>
		</g>
	</g>
</g>
<g>
	<g>
		<g>
			<path class="st1" d="M286.9,121.8c0.2,0,0.2-0.6,0.5-1.6c0.3-1,0.9-2.3,2-3.9c2.5-3.2,6-7.7,10.5-13.4
				c4.4-5.7,9.7-12.4,15.6-19.9c1.5-1.9,3-3.8,4.5-5.7c0.4-0.5,0.8-1,1.2-1.5c0.4-0.5,0.8-1,1.1-1.4c0.7-0.8,1.5-1.6,2.3-2.1
				c0.4-0.2,0.8-0.4,1-0.5c0.3-0.1,0.5,0,0.6,0c0.4,0.2,0.6,0.3,0.9,1.2c0.2,0.8,0.3,2,0.3,3.2c-0.1,1.3-0.1,2.7-0.2,4.1
				c-0.6,11-0.9,21.4-1.5,30.9c-0.3,4.7-0.6,9.2-1.1,13.4c-0.5,4.2-1,8-1.6,11.5c-2.4,14-6.1,22.2-5.4,22.5c0.3,0.1,1.6-1.7,3.4-5.4
				c1.7-3.7,3.8-9.3,5.5-16.4c0.8-3.6,1.6-7.5,2.2-11.7c0.6-4.2,1.1-8.8,1.5-13.5c0.8-9.6,1.3-20,1.9-31c0.1-1.4,0.1-2.8,0.2-4.1
				c0-1.5,0-3.1-0.5-4.8c-0.3-0.9-0.7-1.8-1.4-2.7c-0.7-0.8-1.7-1.5-2.8-1.8c-1.1-0.3-2.3-0.3-3.2-0.1c-1,0.3-1.8,0.7-2.5,1.1
				c-1.4,0.9-2.4,2-3.4,3.1c-0.5,0.6-0.8,1.1-1.2,1.6c-0.4,0.5-0.8,1-1.2,1.5c-1.5,2-3,3.9-4.4,5.8C306,88,301,95,296.9,101
				c-2,3-3.8,5.7-5.4,8.1c-1.5,2.4-2.9,4.4-3.9,6.3c-1,1.9-1.4,3.6-1.3,4.7C286.4,121.3,286.7,121.9,286.9,121.8z"/>
		</g>
	</g>
</g>
<g>
	<g>
		<g>
			<path class="st2" d="M247.7,135.6c-0.1,0-0.3,1.5-0.4,4.3c-0.2,2.7-0.4,6.7-0.7,11.6c-0.4,4.9-0.9,10.7-1.6,17.1
				c-0.4,3.2-0.8,6.6-1.3,10c-0.5,3.5-1.2,7-2.1,10.6c-1,3.6-2.2,6.9-3.8,9.9c-1.6,3-3.6,5.7-5.9,7.9c-2.3,2.2-4.8,3.8-7.4,4.8
				c-2.6,1-5.2,1.5-7.5,1.6c-2.4,0.1-4.5-0.2-6.4-0.6c-1.9-0.4-3.4-1-4.6-1.5c-2.5-1.1-3.7-2.1-3.8-1.9c-0.1,0.1,1,1.2,3.4,2.6
				c2.4,1.3,6.3,2.9,11.4,2.9c2.5,0,5.3-0.4,8.1-1.4c2.8-1,5.6-2.7,8-5c2.5-2.3,4.6-5.1,6.4-8.3c1.8-3.2,3.1-6.7,4.1-10.4
				c1-3.7,1.6-7.3,2.1-10.8c0.5-3.5,0.9-6.9,1.2-10.1c0.7-6.5,1-12.3,1.2-17.2c0.2-4.9,0.2-8.9,0.1-11.6
				C248,137.1,247.8,135.6,247.7,135.6z"/>
		</g>
	</g>
</g>
<g>
	<g>
		<g>
			<path class="st2" d="M265,137.2c-0.1,0-0.4,1.6-0.7,4.6c-0.3,2.9-0.7,7.2-0.9,12.5c-0.2,5.3-0.3,11.6,0.4,18.6
				c0.7,7,2.2,14.7,5.5,22.2c1.6,3.8,3.7,7.2,5.9,10.4c2.3,3.1,5,5.9,8.2,7.7c3.2,1.8,6.8,2.6,10.1,2.2c1.6-0.2,3.2-0.7,4.5-1.4
				c1.4-0.7,2.4-1.7,3.4-2.6c3.7-3.7,7.6-5.5,10.2-6.8c2.7-1.3,4.2-1.9,4.1-2.1c0-0.1-1.6,0.3-4.4,1.4c-1.4,0.5-3.1,1.2-4.9,2.3
				c-0.9,0.5-1.9,1.1-2.9,1.8c-1,0.7-2,1.6-3,2.4c-1,0.8-2,1.7-3.2,2.3c-1.2,0.6-2.5,1-4,1.2c-2.9,0.3-6.1-0.4-8.9-2.2
				c-2.9-1.7-5.4-4.3-7.6-7.3c-2.1-3.1-4.1-6.4-5.7-10c-3.2-7.3-4.7-14.8-5.5-21.6c-0.8-6.9-0.9-13.1-0.8-18.4
				c0-5.3,0.2-9.5,0.3-12.5C265.1,138.9,265.1,137.2,265,137.2z"/>
		</g>
	</g>
</g>
<circle class="st3" cx="226.5" cy="185.5" r="12.5"/>
<circle class="st4" cx="229.5" cy="183.5" r="4.5"/>
<ellipse class="st4" cx="220.5" cy="188.5" rx="2.5" ry="3.5"/>
<circle class="st4" cx="226.5" cy="194.5" r="1.5"/>
<circle class="st3" cx="285.5" cy="185.5" r="12.5"/>
<circle class="st4" cx="282.5" cy="183.5" r="4.5"/>
<ellipse class="st4" cx="291.5" cy="188.5" rx="2.5" ry="3.5"/>
<circle class="st4" cx="286.5" cy="193.5" r="1.5"/>
<g>
	<g>
		<g>
			<path class="st1" d="M258.3,254.9c0.1,0.3,1.6,0.3,4.2-0.3c1.3-0.3,2.9-0.8,4.7-1.7c1.8-0.9,3.8-2.3,5.3-4.6
				c0.7-1.1,1.3-2.4,1.8-3.6c0.5-1.3,0.9-2.5,1.3-3.9c0.8-2.8,1.5-6.1,0.5-9.8c-0.5-1.8-1.4-3.6-2.8-5.1c-0.7-0.8-1.6-1.4-2.6-1.9
				c-1-0.5-2-0.8-2.9-1c-0.9-0.2-1.8-0.3-2.6-0.5c-0.9-0.1-1.7-0.3-2.6-0.4c-1.8-0.3-3.6-0.5-5.5-0.6c-3.8-0.2-7.6,0.2-11.2,1.6
				c-3.6,1.5-6.5,3.9-8.5,6.9c-1,1.5-1.7,3.2-2,5c-0.3,1.8-0.2,3.5,0.2,5.1c0.8,3.2,2.6,5.6,4.3,7.3c1.8,1.8,3.6,3.1,5.2,4.1
				c1.6,1,3.1,1.8,4.5,2.2c2.7,0.9,4.3,0.5,4.3,0.2c0-0.4-1.4-0.7-3.5-2c-1-0.7-2.3-1.6-3.6-2.7c-1.4-1.2-2.8-2.6-4.2-4.2
				c-1.3-1.7-2.5-3.7-2.9-5.9c-0.4-2.2,0.1-4.5,1.6-6.6c1.5-2.1,3.8-3.9,6.5-4.9c2.7-1,5.9-1.3,9.2-1.2c1.7,0.1,3.3,0.3,5,0.5
				c0.8,0.1,1.7,0.2,2.5,0.4c0.8,0.1,1.7,0.3,2.4,0.4c0.7,0.1,1.3,0.3,1.8,0.5c0.5,0.2,0.9,0.5,1.3,0.9c0.8,0.8,1.4,1.9,1.8,3
				c0.7,2.3,0.4,5-0.1,7.5c-0.3,1.3-0.6,2.5-1,3.7c-0.3,1.2-0.7,2.2-1.2,3c-0.9,1.7-2.3,3-3.7,4c-1.4,1-2.8,1.7-3.9,2.2
				C259.6,253.9,258.2,254.6,258.3,254.9z"/>
		</g>
	</g>
</g>
<g>
	<g>
		<g>
			<path class="st5" d="M213.8,232.1c-0.2,0-0.4,0.9-0.2,2.5c0.2,1.6,0.8,3.8,1.9,6.5c1.1,2.6,2.8,5.6,5,8.6c1.1,1.5,2.3,3,3.6,4.6
				c1.3,1.5,2.6,3.1,4.2,4.7c0.8,0.8,1.7,1.5,2.7,2.2c1,0.6,2,1.1,3.1,1.5c2.1,0.7,4.2,1,6,1.1c1.9,0.1,3.6,0.2,5.3,0.1
				c1.7,0,3.4-0.2,4.8-0.7c1.5-0.5,2.7-1.3,3.6-2.1c0.9-0.9,1.5-1.8,1.7-2.6c0.6-1.7,0.2-2.6,0-2.6c-0.3,0-0.4,0.8-1.3,1.9
				c-0.8,1.1-2.4,2.4-4.8,2.9c-1.2,0.2-2.6,0.3-4.1,0.2c-1.5-0.1-3.3-0.3-5-0.5c-1.7-0.2-3.5-0.5-5.1-1.1c-1.6-0.6-3-1.6-4.4-2.9
				c-1.4-1.3-2.7-2.9-4-4.4c-1.3-1.5-2.5-2.9-3.6-4.3c-2.2-2.8-4-5.4-5.3-7.7C215.2,235.3,214.3,232,213.8,232.1z"/>
		</g>
	</g>
</g>
<g>
	<g>
		<g>
			<path class="st5" d="M256.7,256.9c-0.1,0-0.3,0.2-0.5,0.6c-0.2,0.4-0.2,1.2,0,2.1c0.2,0.9,0.7,1.9,1.6,2.9c0.9,1,2.3,1.8,3.8,2.2
				c1.5,0.4,3.3,0.6,5,0.5c1.7,0,3.5-0.1,5.4-0.3c3.9-0.3,8.4-1.8,12.1-4.5c3.8-2.6,6.7-5.9,8.9-9.1c2.2-3.2,3.7-6.3,4.9-8.9
				c2.2-5.3,3.1-8.7,2.7-8.9c-0.5-0.2-2.3,2.9-5,7.7c-1.4,2.4-3.1,5.3-5.3,8.1c-2.2,2.8-4.9,5.7-8.2,8c-3.3,2.3-6.9,3.7-10.4,4.1
				c-1.7,0.3-3.6,0.4-5.2,0.6c-1.6,0.2-3,0.2-4.2,0c-1.2-0.2-2.2-0.6-3-1.2c-0.8-0.6-1.3-1.2-1.6-1.8
				C256.9,257.8,257,256.9,256.7,256.9z"/>
		</g>
	</g>
</g>
<g>
	<g>
		<g>
			<path class="st5" d="M233.6,264.9c-0.2,0-0.5,1.2,0.1,3.2c0.3,1,0.8,2.2,1.5,3.5c0.7,1.3,1.5,2.6,2.4,4.1c0.8,1.5,1.5,3.1,1.9,5
				c0.5,1.9,0.7,4.2,1.8,6.7c0.6,1.2,1.4,2.5,2.5,3.5c1.1,1,2.4,1.7,3.8,2.3c2.7,1,5.6,1.3,8.4,1.3c2.8,0,5.7-0.2,8.5-1.3
				c1.4-0.6,2.7-1.4,3.7-2.4c1.1-1,1.8-2.2,2.4-3.3c1.2-2.3,1.8-4.4,2.5-6.3c0.7-1.9,1.4-3.7,2.1-5.3c2.7-6.5,4.7-10.4,4.2-10.7
				c-0.4-0.3-3.2,3.2-6.6,9.6c-0.8,1.6-1.7,3.3-2.6,5.3c-0.9,1.9-1.7,4.1-2.7,5.9c-1,1.9-2.4,3.2-4.5,4c-2,0.8-4.5,1-7.1,0.9
				c-2.6,0-5.1-0.3-7.1-1c-1-0.4-1.9-0.9-2.7-1.5c-0.7-0.6-1.3-1.4-1.8-2.3c-0.9-1.8-1.3-3.9-1.9-6c-0.6-2.1-1.6-4.1-2.6-5.6
				c-1-1.5-2-2.8-2.9-3.9c-0.8-1.1-1.5-2.1-1.9-2.9C234.1,265.9,233.8,264.9,233.6,264.9z"/>
		</g>
	</g>
</g>
<g>
	<g>
		<g>
			<path class="st5" d="M240.2,265.7c-0.2,0-0.5,0.8-0.2,2.2c0.2,1.4,1.2,3.2,2.3,5.1c1.1,2,2.5,4.3,4.2,6.8
				c0.9,1.3,1.9,2.8,3.6,3.9c1.8,1.2,3.9,1.6,5.8,1.6c3.9,0.1,7.6-1.3,10.2-3.6c1.3-1.1,2.3-2.6,2.9-3.8c0.7-1.3,1.1-2.5,1.5-3.6
				c1.4-4.3,2.1-7.1,1.6-7.3c-0.5-0.2-2,2.2-4,6.3c-1,2-2.1,4.3-4.1,5.8c-2,1.6-4.9,2.5-7.9,2.5c-1.5,0-2.9-0.3-3.9-0.9
				c-1-0.6-1.9-1.7-2.8-2.8c-1.8-2.4-3.4-4.6-4.8-6.3c-1.5-1.8-2.5-3.1-3.1-4.1C240.8,266.3,240.5,265.7,240.2,265.7z"/>
		</g>
	</g>
</g>
<g>
	<g>
		<g>
			<path class="st5" d="M195.6,207.5c-0.3-0.3-2.7,2.1-6.3,6.2l-0.8,0.8l1,0.8c0.5,0.4,1.2,0.8,1.9,1l0.3,0.1c0.1,0,0.2,0.1,0.2,0.1
				l0.2,0.1c0.1,0,0.3,0,0.4,0.1c0,0,0.1,0,0.1,0l0,0.1l0,0.2c0,0.2,0,0.3-0.1,0.5c0,0.3-0.1,0.6-0.1,0.8c-0.1,0.3-0.1,0.7-0.2,1
				c-0.4,1.4-1,2.8-1.9,4l-5.3,7.3l7.6-5.1c0.6-0.4,1.1-0.8,1.8-1.2l0.1-0.1c0,0,0,0,0,0.1c0,0.1,0,0.1,0.1,0.2c0,0.1,0,0.2,0,0.3
				c0,0.2-0.1,0.4-0.2,0.6c0,0-0.1,0.3-0.2,0.5l-0.3,0.7c-0.2,0.5-0.4,1-0.5,1.5c-0.3,1-0.6,2.1-0.8,3.1c-0.5,2.1-0.8,4.3-0.9,6.6
				c-0.4,6.6,0.9,12.9,3.3,18.1c1.1,2.6,2.5,4.9,3.5,7c1,2.1,1.8,4.1,2.1,5.9c0.3,1.8,0.1,3.5-0.4,4.9c-0.5,1.4-1.2,2.5-1.9,3.3
				c-1.4,1.5-2.8,1.8-2.7,2.1c0,0.1,0.4,0.2,1,0.1c0.6-0.1,1.6-0.4,2.7-1.1c1-0.8,2.1-2,2.8-3.6c0.7-1.6,1.3-3.7,1.1-6
				c-0.2-2.3-0.9-4.6-1.9-6.9c-1-2.3-2.2-4.6-3.2-7c-1.9-4.8-3-10.6-2.7-16.6c0.1-2.1,0.4-4.1,0.8-6c0.2-1,0.4-1.9,0.7-2.8
				c0.1-0.5,0.3-0.9,0.4-1.4l0.2-0.7c0.1-0.3,0.1-0.4,0.3-0.9c0.3-0.8,0.6-1.7,0.7-2.5c0.1-0.8,0.1-1.5,0-2.1
				c-0.1-0.6-0.3-1.2-0.6-1.7c-0.2-0.2-0.3-0.5-0.5-0.8l-0.1-0.2L197,219c0,0,0-0.1-0.1,0l-0.4,0.2c-2.1,1.3-4.1,2.5-6,3.7l2.3,2.2
				c1.1-1.7,1.8-3.5,2.1-5.2c0.1-0.4,0.2-0.9,0.2-1.3c0-0.4,0.1-0.8,0.1-1.5c0-0.6,0-1.2-0.1-1.7c0-0.3,0-0.6-0.1-0.8l0-0.4
				c0-0.1-0.1-0.2-0.1-0.3c-0.6,0.1-1.2,0.1-1.7,0.1c-0.3,0-0.5,0-0.8,0l-0.2,0l-0.2,0c-0.5-0.1-0.9-0.3-1.3-0.5l0.2,1.6
				C194.2,210.5,195.9,207.7,195.6,207.5z"/>
		</g>
	</g>
</g>
<g>
	<g>
		<g>
			<path class="st5" d="M317.3,207.5c-0.3,0.3,1.4,3.1,4.6,7.6l0.2-1.6c-0.4,0.2-0.8,0.4-1.3,0.5l-0.2,0l-0.2,0c-0.2,0-0.5,0-0.8,0
				c-0.5,0-1.1-0.1-1.7-0.1c0,0.1-0.1,0.2-0.1,0.3l0,0.4c0,0.3,0,0.5-0.1,0.8c0,0.5-0.1,1.1-0.1,1.7c0,0.7,0,1,0.1,1.5
				c0,0.4,0.1,0.9,0.2,1.3c0.4,1.7,1,3.5,2.1,5.2l2.3-2.2c-1.9-1.2-3.9-2.4-6-3.7l-0.4-0.2c0,0-0.1,0-0.1,0l-0.1,0.1l-0.1,0.2
				c-0.2,0.3-0.3,0.5-0.5,0.8c-0.3,0.5-0.5,1-0.6,1.7c-0.1,0.6-0.1,1.3,0,2.1c0.1,0.8,0.4,1.6,0.7,2.5c0.2,0.5,0.2,0.6,0.3,0.9
				l0.2,0.7c0.2,0.4,0.3,0.9,0.4,1.4c0.3,0.9,0.5,1.9,0.7,2.8c0.4,1.9,0.7,4,0.8,6c0.3,6-0.8,11.8-2.7,16.6c-0.9,2.4-2.2,4.7-3.2,7
				c-1,2.3-1.7,4.7-1.9,6.9c-0.2,2.3,0.3,4.4,1.1,6c0.8,1.6,1.8,2.8,2.8,3.6c1,0.8,2,1,2.7,1.1c0.7,0.1,1,0,1-0.1
				c0.1-0.3-1.3-0.6-2.7-2.1c-0.7-0.8-1.4-1.9-1.9-3.3c-0.5-1.4-0.7-3.1-0.4-4.9c0.3-1.9,1.1-3.8,2.1-5.9c1-2.1,2.4-4.3,3.5-7
				c2.3-5.2,3.6-11.5,3.3-18.1c-0.1-2.3-0.4-4.5-0.9-6.6c-0.3-1.1-0.5-2.1-0.8-3.1c-0.1-0.5-0.3-1-0.5-1.5l-0.3-0.7
				c-0.1-0.2-0.2-0.6-0.2-0.5c-0.1-0.2-0.2-0.4-0.2-0.6c0-0.1,0-0.2,0-0.3c0-0.1,0-0.1,0.1-0.2c0,0,0-0.1,0-0.1l0.1,0.1
				c0.6,0.4,1.2,0.8,1.8,1.2l7.6,5.1l-5.3-7.3c-0.9-1.3-1.6-2.6-1.9-4c-0.1-0.3-0.2-0.7-0.2-1c0-0.3-0.1-0.6-0.1-0.8
				c0-0.2,0-0.3-0.1-0.5l0-0.2l0-0.1c0,0,0.1,0,0.1,0c0.1,0,0.3,0,0.4-0.1l0.2-0.1c0,0,0.1,0,0.2-0.1l0.3-0.1c0.7-0.2,1.3-0.6,1.9-1
				l1-0.8l-0.8-0.8C319.9,209.6,317.6,207.2,317.3,207.5z"/>
		</g>
	</g>
</g>
<g>
	<g>
		<g>
			<path class="st1" d="M327.3,248.7c-0.2,0-0.3,0.4-0.4,1c-0.2,0.6-0.4,1.6-0.8,2.7c-0.4,1.2-1,2.5-1.7,4.1
				c-0.8,1.6-1.7,3.4-2.7,5.5c-1,2.1-2.1,4.6-2.4,7.8c0,0.4,0,0.8,0,1.2l0,0.6l0.1,0.6c0.1,0.4,0.1,0.8,0.2,1.3
				c0.1,0.4,0.3,0.8,0.4,1.2c0.5,1.7,1.6,3.2,2.5,4.4c0.5,0.6,0.9,1.2,1.3,1.8c0.4,0.6,0.7,1.1,1,1.7c0.6,1.2,1,2.6,1.3,4
				c0.6,2.9,0.7,6.1,0.6,9.6c-0.1,7-0.1,13.6-0.1,19.7c0,3,0.1,5.9,0.1,8.6c0.1,2.7,0.1,5.3,0.4,7.6c0.3,2.4,0.7,4.5,1.3,6.3
				c0.6,1.8,1.4,3.3,2.2,4.5c0.8,1.1,1.6,1.8,2.2,2.3c0.6,0.4,1,0.5,1.1,0.4c0.3-0.3-0.6-1.4-1.5-3.6c-0.9-2.2-1.6-5.6-1.7-10.1
				c0-2.2,0.1-4.6,0.2-7.3c0.1-2.7,0.2-5.6,0.4-8.6c0.2-6,0.4-12.7,0.5-19.7c0-3.5-0.1-7.2-0.9-10.7c-0.4-1.8-1-3.5-1.9-5.1
				c-0.4-0.8-0.9-1.6-1.4-2.3c-0.5-0.7-1-1.3-1.5-1.9c-0.9-1.2-1.7-2.1-2.1-3.1c-0.1-0.3-0.2-0.5-0.3-0.8c-0.1-0.3-0.1-0.5-0.2-0.8
				l-0.1-0.4l0-0.4c0-0.3,0-0.5,0-0.8c0-2.2,0.8-4.5,1.5-6.6c1.6-4.2,2.9-7.9,3.1-10.6c0.1-1.3,0-2.4-0.1-3.1
				C327.7,249,327.5,248.6,327.3,248.7z"/>
		</g>
	</g>
</g>
<g>
	<g>
		<g>
			<path class="st1" d="M329.9,233.2c0.4-0.3-0.5-1.9-0.7-4.5c-0.1-1.3,0.1-2.9,0.7-4.5c0.3-0.8,0.8-1.6,1.4-2.3
				c0.3-0.4,0.7-0.8,1.2-1.4c0.2-0.3,0.5-0.7,0.7-1.1c0.2-0.5,0.4-1,0.5-1.5c0.1-0.5,0.1-0.9,0-1.4c-0.1-0.5-0.2-1-0.4-1.4
				c-0.3-0.8-0.8-1.5-1.2-2c-0.9-1.1-1.7-1.9-2.2-2.6c-1.1-1.5-1.8-3.6-2-5.8c-0.4-3.8,0.5-7.7,1-11.5c0.3-1.9,0.5-3.8,0.5-5.6
				c0-1.9-0.2-3.6-0.8-5.2c-0.6-1.6-1.6-3-2.7-3.8c-1.2-0.9-2.2-1.1-2.9-1.4c-1.5-0.4-2.2-0.8-2.4-0.6c-0.1,0.1-0.1,0.4,0.1,0.8
				c0.2,0.4,0.7,1,1.4,1.5c0.6,0.5,1.4,1.1,2,1.8c0.6,0.7,1,1.6,1.2,2.7c0.2,1.1,0.2,2.5,0.1,4c-0.2,1.5-0.5,3.2-0.9,5
				c-0.4,1.8-0.8,3.8-1.2,5.9c-0.3,2.1-0.5,4.5-0.3,6.9c0.3,2.9,1.3,5.9,3.1,8.2c1,1.2,1.9,2,2.5,2.7c0.3,0.3,0.5,0.6,0.6,0.8
				c0.1,0.1,0.1,0.1,0.1,0.2c0,0.1,0,0.1,0,0.2c0,0.1,0,0.2,0,0.3c0,0.1-0.1,0.3-0.2,0.5c-0.2,0.4-0.6,0.8-1,1.4
				c-0.8,1.2-1.3,2.4-1.6,3.6c-0.6,2.4-0.3,4.5,0.2,6.2c0.5,1.6,1.3,2.7,1.9,3.4C329.3,233.2,329.7,233.4,329.9,233.2z"/>
		</g>
	</g>
</g>
<g>
	<g>
		<g>
			<path class="st1" d="M197.2,282.8c-0.3,0-0.8,1.5-0.9,4.3c0,1.4,0,3.1,0.3,5.1c0.3,2,0.8,4.2,1.7,6.6c0.9,2.4,2.4,5,4.9,7.2
				c2.4,2.1,5.3,3.5,7.6,5.2c0.6,0.4,1.1,0.9,1.6,1.3c0.5,0.5,0.9,0.9,1.3,1.5c0.8,1.2,1.5,2.6,2.3,4.3c0.4,0.8,1,1.7,1.6,2.5
				c0.7,0.9,1.6,1.7,2.7,2.4c0.3,0.1,0.6,0.3,0.9,0.4c0.3,0.1,0.6,0.2,0.9,0.3c0.7,0.2,1.2,0.2,1.6,0.3c0.4,0.1,0.7,0.1,0.8,0.2
				c0.1,0,0.1,0.1,0.2,0.1c0.2,0.1,0.8,1.3,1.3,2.1c0.7,1.2,1.4,2.4,2.1,3.6c0.4,0.8,0.9,1.5,1.3,2.3l0.7,1.1
				c0.2,0.2,0.4,0.5,0.6,0.7c0.8,0.9,1.6,1.8,2.3,2.6l0.1,0.2l0.1-0.2l0.2-0.5l0.5-0.9c0.3-0.6,0.6-1.2,0.9-1.7
				c0.6-1.1,1-2.4,1.4-3.7c0.3-1.4,0.5-2.9,0.5-4.5l0-0.6l0-0.4l-0.1-0.7c-0.1-0.5-0.1-1-0.2-1.5l-4.4,1c1,3.9,3.2,7,5.9,9.2
				l1.9,1.6l1.1-2.1c0.9-1.7,1.2-3.5,1-5.1l-3,1.4c3.9,3.2,6.7,6.2,8.6,8.3c1.9,2.1,3,3.4,3.3,3.2c0.3-0.2-0.2-1.8-1.7-4.4
				c-1.5-2.6-4-6.1-7.8-9.9l-3-2.9l-0.1,4.4c0,1-0.3,2.1-0.9,3l3-0.5c-1.9-1.8-3.5-4.3-4.1-7.2l-4.4,1c0.1,0.4,0.1,0.7,0.1,1.1
				l0,0.6l0,0.2l0,0.1c0,0.2,0,0.4-0.1,0.6c-0.1,0.3-0.2,0.7-0.4,0.8c-0.2-0.3-0.3-0.6-0.5-1l-0.1-0.2l-0.7-1.2l-0.7-1.3
				c-0.3-0.5-0.6-1-1.2-1.7c-0.6-0.6-1.3-1.1-2.1-1.4c-0.8-0.3-1.4-0.3-1.9-0.4c-1-0.1-1.2-0.2-1.7-0.4c-0.8-0.4-1.7-1.6-2.5-3
				c-0.8-1.4-1.6-3-2.7-4.6c-0.6-0.8-1.3-1.6-2-2.2c-0.7-0.6-1.5-1.2-2.2-1.7c-2.9-1.9-5.7-3-7.6-4.6c-1.9-1.5-3.3-3.5-4.3-5.4
				c-1-2-1.7-4-2.2-5.8c-0.5-1.8-0.8-3.3-1.1-4.6C197.8,284.3,197.6,282.8,197.2,282.8z"/>
		</g>
	</g>
</g>
<g>
	<g>
		<g>
			<path class="st1" d="M259.6,347.2c0.4,0.2,2.3-2.1,5.2-6.3c0.7-1.1,1.5-2.2,2.4-3.5c0.4-0.6,0.8-1.2,1.3-1.6
				c0.2-0.2,0.4-0.3,0.7-0.5c0.2-0.1,0.6-0.2,0.9-0.4c0.4-0.1,0.9-0.3,1.3-0.4c0.5-0.2,1-0.4,1.6-0.6c1-0.5,2-1.2,2.9-2
				c1.7-1.7,3.1-3.9,3.5-6.7l-4.2,0.3c0.4,1.7,0.9,3.4,1.4,5.1l1.4,5.4l2.8-5c1.8-3.2,3.7-6.7,5.8-10.2c0.9-1.5,1.8-3.1,2.7-4.6
				c0.2-0.3,0.4-0.6,0.6-0.9c0-0.1,0,0,0,0l0,0.1l0.1,0.2l0.1,0.5l0.1,0.2c0.2,0.9,0.4,1.9,0.6,2.8c0.6,3,1.2,5.9,1.8,8.8
				c2.2-5.5,4.4-10.9,6.5-16c0.3-0.8,0.6-1.6,0.9-2.4c0.1-0.3,0.3-0.7,0.4-1l0.1-0.2l0-0.1l0-0.1c0.1-0.2,0.1-0.4,0.2-0.6l0-0.1
				l0-0.1c0,0,0,0,0,0c0,0.1,0.1,0.1,0.2,0.2c0.1,0.1,0.2,0.2,0.4,0.2l0.1,0l0.2,0.1c0.2,0.1,0.4,0.1,0.5,0.1
				c0.4,0.1,0.7,0.1,1.1,0.2c0.7,0.1,1.4,0,2.1-0.1c0.3-0.1,0.7-0.2,1-0.3c0.3-0.1,0.6-0.2,0.9-0.4c2.3-1.2,3.7-3,4.8-4.6
				c2.1-3.2,3.2-6.4,3.7-9c0.6-2.6,0.6-4.7,0.5-6.2c-0.1-1.4-0.4-2.2-0.6-2.2c-0.2,0-0.4,0.7-0.7,2.1c-0.3,1.3-0.7,3.2-1.6,5.6
				c-0.9,2.3-2.1,5-4.2,7.6c-1,1.3-2.2,2.5-3.5,3c-0.2,0.1-0.3,0.1-0.5,0.2c-0.2,0-0.3,0.1-0.5,0.1c-0.3,0-0.7,0-1,0
				c-0.2,0-0.3-0.1-0.5-0.1l-0.2-0.1c0,0,0,0-0.1-0.1c-0.1-0.1-0.2-0.1-0.3-0.2l-0.6-0.8l-0.6-1.1c-0.5-0.9-1-1.8-1.6-2.7l-0.3,0.4
				c-0.1,0.1-0.2,0.3-0.2,0.4c-0.1,0.1-0.2,0.3-0.3,0.3c0,0-0.1,0-0.1,0.1l-0.2,0.4l-0.4,0.8c-0.5,1.1-1,2.3-1.5,3.4
				c-0.6,1.5-1.3,3-2,4.5c-0.2,0.5-0.5,1-0.8,1.6c0.2,1.1,0.5,2.1,0.7,3.2l0.2,0.8l0,0.1l0,0.1l0-0.1l-0.1-0.3l-0.1-0.7
				c-0.2-0.9-0.4-1.7-0.5-2.6c-0.4-1.7-0.7-3.5-1.1-5.3c-0.2-0.9-0.4-1.8-0.6-2.6l-0.3-1.3c-0.1-0.3-0.1-1.2-0.4-0.5
				c-2.1,3.4-4.1,6.7-6.1,10.1c-0.7,1.2-1.4,2.3-2,3.5c-0.5,0.9-1,1.8-1.5,2.7c-2,3.6-3.9,7.1-5.5,10.5l4.2,0.4
				c-0.5-1.7-1.1-3.4-1.6-5.1l-3.2-10.1l-1,10.4c-0.2,1.7-1,3.2-2,4.4c-0.5,0.6-1.2,1.1-1.8,1.5c-0.3,0.2-0.6,0.3-1,0.5
				c-0.4,0.2-0.9,0.3-1.3,0.5c-0.5,0.2-1,0.4-1.5,0.7c-0.5,0.3-1,0.7-1.3,1.1c-0.7,0.8-1.1,1.6-1.5,2.3c-0.7,1.4-1.4,2.7-1.9,3.8
				C260.4,344.2,259.2,347,259.6,347.2z"/>
		</g>
	</g>
</g>
<g>
	<g>
		<g>
			<path class="st1" d="M196.2,298.4c-0.7-0.1-1.5,2.8-2.4,7.4c-0.4,2.3-0.8,5-1.2,8.2c-0.1,1.6-0.2,3.5,0.2,5.5
				c0.5,2,1.4,3.8,2.4,5.5c1,1.6,2,3,2.8,4.3c0.9,1.4,1.6,2.7,2.3,4c1.4,2.6,2.6,5.1,3.5,7.1c1.8,4.2,2.8,6.9,3.5,6.8
				c0.7-0.1,0.9-3.1-0.1-7.9c-0.5-2.4-1.4-5.1-2.7-8.1c-0.7-1.5-1.4-3-2.3-4.5c-0.9-1.5-1.9-3-2.8-4.4c-0.9-1.4-1.6-2.7-1.9-4
				c-0.3-1.2-0.4-2.7-0.4-4.1c0.1-3,0.1-5.9,0.1-8.2C197.3,301.4,196.9,298.4,196.2,298.4z"/>
		</g>
	</g>
</g>
<g>
	<g>
		<g>
			<path class="st1" d="M305.4,343.7c0.2,0.3,1,0.2,2.2-0.5c1.2-0.7,2.7-2.2,3.9-4.4c1.2-2.1,2.2-4.9,2.9-7.9c0.8-3,1.4-6.3,1.9-9.8
				c0.9-7,0.9-13.4,0.3-18c-0.5-4.6-1.4-7.4-2.1-7.3c-1.4,0.1-1.4,11.3-3.2,24.7c-0.4,3.4-0.9,6.6-1.4,9.5c-0.5,2.9-1,5.4-1.6,7.4
				C307.1,341.3,305,343.1,305.4,343.7z"/>
		</g>
	</g>
</g>
<text transform="matrix(1 0 0 1 85.5947 391.082)" class="st6 st7 st8">Pets Home</text>
</svg>
